<svg width="175" height="50" xmlns="http://www.w3.org/2000/svg">
 <!-- Created with Method Draw - http://github.com/duopixel/Method-Draw/ -->

 <g>
  <title transform="translate(-2,1) ">background</title>
 </g>
 <g>
  <title transform="translate(1,0) ">Layer 1</title>
  <metadata transform="translate(1,0) matrix(0.017777779632144552,0,0,0.017777779632144552,0,0) ">Svg Vector Icons : http://www.onlinewebfonts.com/icon</metadata>
  <metadata transform="matrix(0.00039999998211860677,0,0,0.00039999998211860677,0,0) ">Svg Vector Icons : http://www.onlinewebfonts.com/icon</metadata>
  <g transform="rotate(-1.6823433637619019 -9219.184570312502,3349.6699218749677) " stroke="null" id="svg_37">
   <g transform="rotate(-1.6823433637619019 -9219.183593750027,3349.669921875007) matrix(-0.03787133483406202,0,0,0.03706003361168971,9538.452869364663,-2736.1383423195634) " stroke="null" id="svg_33">
    <path stroke="null" id="svg_34" d="m244508.614069,89557.293121c0.017622,-0.045009 0.062286,-0.072274 0.111498,-0.073719c0,0 0,0 0,0l7.658939,-0.195289l-5.443865,-8.493651c-0.031807,-0.050972 -0.022518,-0.121689 0.029391,-0.16029c0.048123,-0.038489 0.120266,-0.033193 0.163212,0.010037l11.218796,11.360562c0.035049,0.032339 0.044143,0.083978 0.026521,0.128987c-0.017622,0.045009 -0.058501,0.072163 -0.107603,0.077312l-6.947329,0.430213l5.471868,9.060091c0.031807,0.050972 0.018732,0.121801 -0.033285,0.156697c-0.022278,0.015485 -0.044773,0.023561 -0.071272,0.024339c-0.03407,0.001001 -0.068574,-0.012816 -0.092049,-0.03808l-11.962086,-12.158111c-0.031263,-0.03245 -0.040357,-0.08409 -0.022736,-0.129098z"/>
    <path stroke="null" id="svg_35" d="m244485.914831,89546.948241c0.722647,-2.227248 1.863789,-4.266576 3.383418,-6.061197c1.57467,-1.855559 3.489124,-3.365168 5.695456,-4.482929c2.206331,-1.117761 4.569895,-1.784104 7.023312,-1.971099c2.370245,-0.180844 4.727048,0.083619 7.005837,0.78787c2.278898,0.707955 4.35745,1.818509 6.189359,3.303359c1.894109,1.538637 3.434276,3.410231 4.57366,5.567959c1.311844,2.482639 2.003868,5.146617 2.054967,7.918402c0.009924,0.466866 -0.372888,0.84887 -0.846185,0.859064c-0.477082,0.010305 -0.866839,-0.360131 -0.876762,-0.826997c-0.047269,-2.512365 -0.675112,-4.926112 -1.862642,-7.175116c-4.224082,-7.98446 -14.303086,-11.110547 -22.471195,-6.966538c-3.957142,2.007101 -6.877136,5.400045 -8.228926,9.555186c-1.35179,4.155141 -0.968144,8.574457 1.077683,12.440719c4.224082,7.98446 14.303086,11.110547 22.471195,6.966538c0.421886,-0.212602 0.941828,-0.053616 1.162325,0.358867c0.216712,0.412594 0.05359,0.921619 -0.368187,1.137925c-2.206331,1.117761 -4.570003,1.7804 -7.023312,1.971099c-0.298619,0.023601 -0.597456,0.039793 -0.896511,0.048577c-2.066884,0.060706 -4.117278,-0.220171 -6.109326,-0.836447c-2.275004,-0.704362 -4.35745,-1.818509 -6.189359,-3.303359c-1.894109,-1.538637 -3.434276,-3.410231 -4.57366,-5.567959c-1.139384,-2.157728 -1.817286,-4.469899 -2.005249,-6.870611c-0.185569,-2.319216 0.091563,-4.622361 0.814102,-6.853313z"/>
    <path stroke="null" id="svg_36" d="m244504.113538,89539.5173c0.476973,-0.014009 0.870407,0.352611 0.884007,0.815661l0.35317,12.024502c0.013709,0.466755 -0.361423,0.852241 -0.834611,0.866139l-8.543876,0.250941c-0.476973,0.014009 -0.870407,-0.352611 -0.884007,-0.815661c-0.013709,-0.466755 0.361423,-0.852241 0.834611,-0.866139l7.684567,-0.225702l-0.328472,-11.183601c-0.0136,-0.463051 0.361423,-0.852241 0.834611,-0.866139z"/>
   </g>
  </g>
  <text font-style="normal" font-weight="normal" xml:space="preserve" text-anchor="start" font-family="Helvetica, Arial, sans-serif" font-size="24" id="svg_38" y="32.5" x="41.47619" fill-opacity="null" stroke-opacity="null" stroke-width="0" stroke="null" fill="#000000">Quick News</text>
  <metadata transform="matrix(0.00039999998211860677,0,0,0.00039999998211860677,0,0) ">Svg Vector Icons : http://www.onlinewebfonts.com/icon</metadata>
  <g stroke="null" transform="rotate(-0.07254741340875626 19.736070632932837,25.00164794921767) " id="svg_46">
   <g stroke="null" transform="matrix(-0.0304762682049668,0,0,0.029445951823101824,7563.321973332442,-2168.900893963076) " id="svg_42">
    <path stroke="null" id="svg_43" d="m247394.795282,74642.611823c-0.5,-1.2 -1.7,-1.9 -3,-1.9c0,0 0,0 0,0l-202.3,0.8l137.1,-233.4c0.8,-1.4 0.5,-3.3 -0.9,-4.3c-1.3,-1 -3.2,-0.8 -4.3,0.4l-287.3,315.3c-0.9,0.9 -1.1,2.3 -0.6,3.5c0.5,1.2 1.6,1.9 2.9,2l183.7,6.1l-137.4,248.7c-0.8,1.4 -0.4,3.3 1,4.2c0.6,0.4 1.2,0.6 1.9,0.6c0.9,0 1.8,-0.4 2.4,-1.1l306.3,-337.4c0.8,-0.9 1,-2.3 0.5,-3.5z"/>
    <path stroke="null" id="svg_44" d="m247985.895282,74345.611823c-20.8,-59.5 -52.5,-113.6 -94,-160.8c-43,-48.8 -94.7,-88 -153.8,-116.4c-59.1,-28.4 -122,-44.5 -186.9,-47.6c-62.7,-3 -124.7,6 -184.3,26.8c-59.6,20.9 -113.6,52.5 -160.8,94c-48.8,43 -88,94.7 -116.4,153.8c-32.7,68 -48.9,140.4 -48.1,215.2c0.1,12.6 10.5,22.6 23,22.5c12.6,-0.1 22.6,-10.4 22.5,-23c-0.7,-67.8 14,-133.4 43.6,-195c105.3,-218.7 368.9,-311 587.7,-205.7c106,51 185.7,140.2 224.6,251.2c38.9,111 32.2,230.5 -18.8,336.4c-105.3,218.7 -368.9,311 -587.7,205.7c-11.3,-5.4 -24.9,-0.7 -30.4,10.6c-5.4,11.3 -0.7,24.9 10.6,30.4c59.1,28.4 122,44.4 186.9,47.6c7.9,0.4 15.8,0.6 23.7,0.6c54.6,0 108.5,-9.2 160.6,-27.4c59.5,-20.8 113.6,-52.5 160.8,-94c48.8,-43 88,-94.7 116.4,-153.8c28.4,-59.1 44.5,-122 47.6,-186.9c3.1,-62.7 -6,-124.6 -26.8,-184.2z"/>
    <path stroke="null" id="svg_45" d="m247526.195282,74158.811823c-12.6,0 -22.7,10.2 -22.7,22.7l0,324.6c0,12.6 10.2,22.7 22.7,22.7l225.7,0c12.6,0 22.7,-10.2 22.7,-22.7c0,-12.6 -10.2,-22.7 -22.7,-22.7l-203,0l0,-301.9c0,-12.5 -10.2,-22.7 -22.7,-22.7z"/>
   </g>
  </g>
 </g>
</svg>